<svg width="918" height="218" viewBox="0 0 918 218" fill="none" xmlns="http://www.w3.org/2000/svg">
<path d="M219.701 209.333C226.68 209.333 232.341 205.109 234.07 198.702H230.247C228.773 203.015 224.706 205.723 219.82 205.723C213.419 205.723 208.862 201.083 208.862 194.432C208.862 187.781 213.419 183.14 219.82 183.14C224.586 183.14 228.487 185.687 229.961 189.833H233.82C231.935 183.51 226.471 179.531 219.701 179.531C211.242 179.531 205.164 185.77 205.164 194.432C205.164 203.093 211.242 209.333 219.701 209.333Z" fill="#FF751F"/>
<path d="M239.977 208.801H243.425V178.421H239.977V208.801Z" fill="#FF751F"/>
<path d="M250.938 208.801H254.386V187.494H250.938V208.801ZM249.87 181.296C249.87 182.812 250.979 183.963 252.662 183.963C254.344 183.963 255.412 182.812 255.412 181.296C255.412 179.734 254.344 178.583 252.662 178.583C250.979 178.583 249.87 179.734 249.87 181.296Z" fill="#FF751F"/>
<path d="M271.18 209.333C276.514 209.333 280.66 206.135 282.097 200.958H278.446C277.378 204.041 274.628 206.01 271.18 206.01C266.785 206.01 263.665 202.765 263.665 198.13C263.665 193.531 266.785 190.244 271.18 190.244C274.42 190.244 277.092 192.01 278.363 194.968H281.852C280.785 190.161 276.472 186.958 271.18 186.958C264.774 186.958 260.217 191.64 260.217 198.13C260.217 204.656 264.774 209.333 271.18 209.333Z" fill="#FF751F"/>
<path d="M287.803 208.801H291.251V199.603H293.798C294.782 199.603 295.688 199.562 296.506 199.4L302.376 208.801H306.485L299.834 198.249C301.391 197.265 302.501 195.666 303.365 193.322L305.495 187.494H301.803L300.204 192.051C299.011 195.499 297.37 196.4 293.923 196.4H291.251V178.421H287.803V208.801Z" fill="#FF751F"/>
<path d="M319.331 209.333C324.587 209.333 327.993 206.911 327.993 203.218C327.993 199.89 325.201 197.635 319.826 196.567C315.389 195.702 313.873 194.843 313.873 193.036C313.873 191.145 315.675 189.999 318.758 189.999C321.998 189.999 323.93 191.27 324.175 193.609H327.581C327.295 189.421 323.972 186.958 318.717 186.958C313.581 186.958 310.462 189.218 310.462 193.036C310.462 196.4 313.05 198.458 318.55 199.359C322.696 200.057 324.587 201.208 324.587 203.135C324.587 205.067 322.618 206.255 319.373 206.255C315.717 206.255 313.545 204.697 313.42 202.109H310.014C310.092 206.463 313.748 209.333 319.331 209.333Z" fill="#FF751F"/>
<path d="M377.188 209.333C384.167 209.333 389.829 205.109 391.558 198.702H387.735C386.261 203.015 382.194 205.723 377.308 205.723C370.907 205.723 366.35 201.083 366.35 194.432C366.35 187.781 370.907 183.14 377.308 183.14C382.074 183.14 385.975 185.687 387.449 189.833H391.308C389.423 183.51 383.959 179.531 377.188 179.531C368.73 179.531 362.652 185.77 362.652 194.432C362.652 203.093 368.73 209.333 377.188 209.333Z" fill="white"/>
<path d="M407.074 209.333C413.683 209.333 418.36 204.656 418.36 198.13C418.36 191.598 413.683 186.958 407.074 186.958C400.465 186.958 395.782 191.598 395.782 198.13C395.782 204.656 400.465 209.333 407.074 209.333ZM399.23 198.13C399.23 193.489 402.475 190.244 407.074 190.244C411.668 190.244 414.912 193.489 414.912 198.13C414.912 202.807 411.668 206.01 407.074 206.01C402.475 206.01 399.23 202.807 399.23 198.13Z" fill="white"/>
<path d="M424.189 208.801H427.637V197.468C427.637 193.077 430.101 190.244 433.799 190.244C437.367 190.244 439.627 192.952 439.627 197.182V208.801H443.075V197.468C443.075 193.077 445.538 190.244 449.231 190.244C452.804 190.244 455.064 192.952 455.064 197.182V208.801H458.512V196.609C458.512 190.656 455.064 186.958 449.684 186.958C446.236 186.958 443.445 188.437 441.762 191.145C440.325 188.395 437.695 186.958 434.288 186.958C431.335 186.958 428.95 188.067 427.351 190.161L427.023 187.494H424.189V208.801Z" fill="white"/>
<path d="M477.231 209.333C483.512 209.333 488.069 204.614 488.069 198.13C488.069 191.682 483.512 186.958 477.231 186.958C473.741 186.958 470.783 188.395 468.856 190.781L468.444 187.494H465.611V217.015H469.059V205.765C470.991 207.978 473.861 209.333 477.231 209.333ZM468.939 198.13C468.939 193.531 472.179 190.244 476.778 190.244C481.418 190.244 484.621 193.531 484.621 198.13C484.621 202.765 481.418 206.01 476.778 206.01C472.179 206.01 468.939 202.765 468.939 198.13Z" fill="white"/>
<path d="M500.875 209.13C504.323 209.13 507.036 208.02 508.963 205.843L509.333 208.801H512.167V195.255C512.167 190.327 508.432 186.958 502.844 186.958C498.208 186.958 494.719 189.463 493.771 193.572H497.26C497.958 191.478 500.135 190.161 502.885 190.161C506.5 190.161 508.719 192.176 508.719 195.499V196.281H500.015C495.578 196.281 492.667 198.786 492.667 202.645C492.667 206.666 495.745 209.13 500.875 209.13ZM496.114 202.603C496.114 200.588 497.755 199.317 500.135 199.317H508.76C508.635 203.26 505.432 206.051 501 206.051C498 206.051 496.114 204.697 496.114 202.603Z" fill="white"/>
<path d="M519.225 208.801H522.673V198.906C522.673 192.833 525.714 190.697 529.568 190.697H531.667V187.494H529.735C526.12 187.494 523.985 188.645 522.469 191.187L522.058 187.494H519.225V208.801Z" fill="white"/>
<path d="M546.24 209.333C551.042 209.333 554.985 206.749 556.708 202.603H552.807C551.495 204.859 549.073 206.093 546.281 206.093C542.214 206.093 539.339 203.546 538.807 199.525H557.24C557.49 192.093 553.094 186.958 546.281 186.958C539.833 186.958 535.318 191.557 535.318 198.13C535.318 204.739 539.792 209.333 546.24 209.333ZM538.849 196.484C539.464 192.708 542.339 190.202 546.281 190.202C550.177 190.202 553.052 192.583 553.792 196.484H538.849Z" fill="white"/>
<path d="M603.112 209.333C609.394 209.333 613.456 206.254 613.456 201.249C613.456 197.02 610.623 194.473 603.274 192.666C597.691 191.312 595.842 189.833 595.842 187.452C595.842 184.702 598.305 182.978 602.415 182.978C606.644 182.978 609.269 185.114 609.352 188.562H612.925C612.883 182.978 608.857 179.531 602.415 179.531C596.133 179.531 592.149 182.609 592.149 187.452C592.149 191.885 595.31 194.348 602.373 196.036C607.545 197.265 609.722 198.702 609.722 201.369C609.722 204.202 607.175 205.885 603.112 205.885C598.633 205.885 595.514 203.671 595.435 199.973H591.821C591.862 205.598 596.253 209.333 603.112 209.333Z" fill="#FF751F"/>
<path d="M626.592 209.13C630.04 209.13 632.753 208.02 634.68 205.843L635.05 208.801H637.883V195.255C637.883 190.327 634.149 186.958 628.56 186.958C623.925 186.958 620.435 189.463 619.487 193.572H622.977C623.675 191.478 625.852 190.161 628.602 190.161C632.217 190.161 634.435 192.176 634.435 195.499V196.281H625.732C621.295 196.281 618.383 198.786 618.383 202.645C618.383 206.666 621.461 209.13 626.592 209.13ZM621.831 202.603C621.831 200.588 623.472 199.317 625.852 199.317H634.477C634.352 203.26 631.149 206.051 626.717 206.051C623.717 206.051 621.831 204.697 621.831 202.603Z" fill="#FF751F"/>
<path d="M651.098 208.801H654.426L663.785 187.494H660.051L657.093 194.229L652.785 204.202L648.431 194.229L645.515 187.494H641.78L651.098 208.801Z" fill="#FF751F"/>
<path d="M677.375 209.333C682.177 209.333 686.12 206.749 687.844 202.603H683.943C682.63 204.859 680.208 206.093 677.417 206.093C673.349 206.093 670.474 203.546 669.943 199.525H688.375C688.625 192.093 684.229 186.958 677.417 186.958C670.969 186.958 666.453 191.557 666.453 198.13C666.453 204.739 670.927 209.333 677.375 209.333ZM669.984 196.484C670.599 192.708 673.474 190.202 677.417 190.202C681.313 190.202 684.188 192.583 684.927 196.484H669.984Z" fill="#FF751F"/>
<path d="M341.255 198.453H348.125" stroke="#FF751F" stroke-width="4.05352" stroke-linecap="round"/>
<path d="M571.224 198.453H578.093" stroke="#FF751F" stroke-width="4.05352" stroke-linecap="round"/>
<path d="M152.125 139.856C166.047 139.856 176.484 131.674 179.12 118.689H165.198C163.224 124.054 158.333 127.533 152.313 127.533C144.599 127.533 139.234 121.887 139.234 113.799C139.234 105.71 144.599 100.064 152.313 100.064C157.958 100.064 162.568 103.075 164.917 108.059H178.651C176.391 95.8299 165.859 87.8351 152.125 87.8351C136.323 87.8351 125.125 98.6528 125.125 113.799C125.125 129.038 136.229 139.856 152.125 139.856Z" fill="white"/>
<path d="M189.469 138.538H203.766V68.9287H189.469V138.538Z" fill="white"/>
<path d="M217.782 138.538H232.079V89.1527H217.782V138.538ZM215.709 73.1631C215.709 78.4287 219.475 82.1006 224.928 82.1006C230.386 82.1006 234.146 78.4287 234.146 73.1631C234.146 67.8923 230.386 64.2256 224.928 64.2256C219.475 64.2256 215.709 67.8923 215.709 73.1631Z" fill="white"/>
<path d="M269.61 139.856C283.532 139.856 293.97 131.674 296.605 118.689H282.683C280.709 124.054 275.819 127.533 269.798 127.533C262.084 127.533 256.72 121.887 256.72 113.799C256.72 105.71 262.084 100.064 269.798 100.064C275.444 100.064 280.053 103.075 282.402 108.059H296.136C293.876 95.8299 283.345 87.8351 269.61 87.8351C253.808 87.8351 242.61 98.6528 242.61 113.799C242.61 129.038 253.715 139.856 269.61 139.856Z" fill="white"/>
<path d="M306.954 138.538H321.25V119.726H328.964L339.875 138.538H356.527L342.318 114.929C344.954 112.575 347.021 109.283 348.62 104.861L354.36 89.1527H338.933L335.454 99.8766C333.573 105.429 330.938 106.934 324.917 106.934H321.25V68.9287H306.954V138.538Z" fill="white"/>
<path d="M384.837 139.856C398.191 139.856 406.285 134.023 406.285 124.616C406.285 116.528 400.264 111.351 388.035 108.908C379.566 107.215 376.936 105.804 376.936 102.793C376.936 99.8768 379.566 98.184 383.8 98.184C388.597 98.184 391.514 100.345 391.795 104.111H405.436C404.78 93.6684 397.066 87.8351 383.894 87.8351C370.634 87.8351 363.108 93.1997 363.108 102.793C363.108 110.976 368.748 115.866 381.358 118.127C388.978 119.444 392.175 121.418 392.175 124.523C392.175 127.439 389.54 129.226 385.024 129.226C379.759 129.226 376.561 126.684 376.462 122.642H362.446C362.446 132.986 371.29 139.856 384.837 139.856Z" fill="white"/>
<path d="M503.9 141.51C517.822 141.51 528.26 133.327 530.895 120.343H516.973C514.999 125.708 510.109 129.187 504.088 129.187C496.374 129.187 491.01 123.541 491.01 115.452C491.01 107.364 496.374 101.718 504.088 101.718C509.734 101.718 514.338 104.728 516.692 109.713H530.426C528.166 97.4837 517.635 89.4889 503.9 89.4889C488.098 89.4889 476.9 100.307 476.9 115.452C476.9 130.692 488.005 141.51 503.9 141.51Z" fill="white"/>
<path d="M565.508 141.51C581.878 141.51 593.164 130.88 593.164 115.452C593.164 100.119 581.878 89.4889 565.508 89.4889C549.049 89.4889 537.758 100.119 537.758 115.452C537.758 130.88 549.049 141.51 565.508 141.51ZM551.867 115.452C551.867 107.364 557.513 101.718 565.508 101.718C573.503 101.718 579.055 107.364 579.055 115.452C579.055 123.541 573.503 129.187 565.508 129.187C557.513 129.187 551.867 123.541 551.867 115.452Z" fill="white"/>
<path d="M603.698 140.192H617.995V113.478C617.995 106.327 621.943 101.718 628.058 101.718C633.985 101.718 637.651 106.14 637.651 113.103V140.192H651.766V113.478C651.766 106.327 655.714 101.718 661.828 101.718C667.756 101.718 671.422 106.14 671.422 113.103V140.192H685.719V111.406C685.719 97.8639 677.631 89.4889 665.026 89.4889C657.5 89.4889 651.292 92.4056 647.25 97.5826C643.766 92.3118 638.032 89.4889 630.974 89.4889C624.672 89.4889 619.313 91.6556 615.735 95.8847L614.323 90.8066H603.698V140.192Z" fill="white"/>
<path d="M728.704 141.51C743.47 141.51 753.913 130.786 753.913 115.452C753.913 100.307 743.47 89.4889 728.704 89.4889C721.553 89.4889 715.439 92.0306 711.017 96.4524L709.418 90.8066H698.793V159.005H713.09V136.338C717.225 139.63 722.59 141.51 728.704 141.51ZM712.522 115.452C712.522 107.458 718.168 101.718 726.163 101.718C734.251 101.718 739.803 107.458 739.803 115.452C739.803 123.541 734.251 129.187 726.163 129.187C718.168 129.187 712.522 123.541 712.522 115.452Z" fill="white"/>
<path d="M780.905 141.135C788.244 141.135 794.265 138.781 798.499 134.452L800.098 140.192H810.723V110.468C810.723 97.3899 801.884 89.4889 787.114 89.4889C774.509 89.4889 766.233 95.5097 764.447 106.234H778.176C779.025 102.755 782.598 100.4 787.207 100.4C792.853 100.4 796.707 103.598 796.707 108.494V110.749H778.838C768.582 110.749 761.999 116.676 761.999 125.801C761.999 135.301 769.244 141.135 780.905 141.135ZM776.108 125.234C776.108 121.848 778.931 119.687 783.259 119.687H796.801C796.52 126.364 791.348 130.88 784.197 130.88C779.306 130.88 776.108 128.624 776.108 125.234Z" fill="white"/>
<path d="M823.799 140.192H838.096V118.369C838.096 107.739 843.08 103.791 851.262 103.791H856.721V90.8066H851.356C844.117 90.8066 839.507 92.7806 836.309 97.39L834.424 90.8066H823.799V140.192Z" fill="white"/>
<path d="M890.113 141.51C902.243 141.51 911.842 135.301 916.165 124.859H901.681C899.332 128.15 895.097 130.031 890.394 130.031C883.904 130.031 878.821 126.364 877.509 119.593H917.108C917.957 101.531 907.233 89.4889 890.3 89.4889C874.306 89.4889 863.3 100.119 863.3 115.452C863.3 130.88 874.212 141.51 890.113 141.51ZM877.602 110.562C879.201 104.541 884.092 100.874 890.394 100.874C896.977 100.874 901.681 104.541 903.279 110.562H877.602Z" fill="white"/>
<path d="M29.1238 98.3584C28.8995 79.9168 28.6967 62.9384 28.5045 45.9601C28.4724 43.4545 28.3229 40.9388 28.5472 38.4632C29.049 32.8806 33.8006 28.9016 39.5772 29.0019C45.151 29.1021 49.7744 32.9508 50.0521 38.4432C50.4792 47.0726 50.4365 55.7222 50.5966 65.0232C57.8361 61.7357 63.3031 63.5899 67.4354 69.1525C76.725 66.5065 79.608 67.3384 84.2421 73.9132C95.8381 71.3073 100.44 74.7852 100.472 85.9203C100.504 96.4341 100.536 106.948 100.963 117.441C101.551 131.894 95.0693 142.648 82.0104 149.815C68.4284 157.261 54.5367 156.51 41.6167 148.702C35.8294 145.204 30.7574 140.143 26.5611 134.931C18.1044 124.437 10.4057 113.392 2.51491 102.498C-1.19025 97.3662 -0.720432 91.7836 3.39049 87.8447C7.45869 83.9358 14.1002 82.7933 18.4461 85.9905C21.297 88.0852 23.2831 91.2323 25.6215 93.9284C26.5184 94.9507 27.2979 96.0432 29.1238 98.3584ZM43.2447 145.262C43.5117 145.052 43.891 146.066 44.158 145.856C46.4323 146.808 48.664 147.86 50.981 148.692C71.4929 156.079 95.742 142.308 96.5001 122.413C96.9913 109.423 96.3613 96.394 96.1904 83.3846C96.1477 79.8165 94.6849 76.9 90.4565 76.91C86.1427 76.92 84.9041 79.9569 84.8827 83.4748C84.8614 88.1453 85.1177 92.8259 84.9041 97.4864C84.9034 97.5015 84.9025 97.5166 84.9015 97.5317C84.7741 99.4444 80.9179 99.5014 80.8252 97.5866C80.5262 91.2524 80.5476 84.9181 80.4729 78.5737C80.4301 74.7351 78.7858 71.7884 74.4293 71.7483C69.699 71.7082 68.1828 74.9155 68.2148 78.8945C68.2469 83.8957 68.4818 88.9071 68.3003 93.9083C68.2214 95.833 64.3324 95.805 64.1829 93.8845C64.1811 93.8624 64.1797 93.8403 64.1787 93.8181C63.8904 87.4838 64.0078 81.1395 63.837 74.8052C63.7195 70.2048 61.0074 67.3484 57.0887 67.3885C53.2233 67.4286 50.7248 70.3251 50.6927 75.0758C50.65 79.7464 50.949 84.4269 50.7354 89.0875C50.6375 91.0845 46.6784 91.1867 46.6352 89.1877C46.2935 73.8431 46.1654 58.4984 45.9625 43.1538C45.9411 41.49 45.9625 39.5238 45.5995 38.2527C44.3125 35.0136 41.7341 33.7927 39.3423 33.3116C35.8827 32.62 33.3415 35.0154 32.8396 38.4933C32.562 40.4577 32.7328 42.4923 32.7542 44.4868C32.9891 64.0008 33.2667 83.5249 33.4269 103.039C33.4446 105.2 29.9336 106.408 28.5276 104.766C28.5014 104.735 28.4759 104.704 28.4511 104.673C25.0662 100.383 22.0872 95.8227 18.6276 91.5931C14.8797 86.9927 7.41598 87.1631 5.50467 92.1343C4.54368 94.63 5.14163 98.5789 6.70057 100.864C14.1856 111.799 22.0124 122.543 30.2022 133.027C34.0248 137.888 38.8241 140.792 43.2447 145.262Z" fill="#FF751F"/>
<path d="M431.074 94.0895H419.074H417.074C414.741 86.9228 419.074 70.6402 437.074 67.5895C460.674 63.5896 467.574 80.9228 468.074 90.0895C467.5 104.5 448.574 116.589 445.074 119.089C442.274 121.089 436.574 125.923 434.074 128.089H468.074V140.59H416.074C415.074 124.59 424.574 119.589 426.574 117.089C428.574 114.589 444.074 103.589 449.574 98.0895C455.074 92.5895 454.074 78.0895 441.574 79.0895C431.574 79.8895 430.407 89.4228 431.074 94.0895Z" fill="#FF751F"/>
<path d="M76.9983 39.192L66 39" stroke="#FF751F" stroke-width="6" stroke-linecap="round"/>
<path d="M42.192 3L42 13.9983" stroke="#FF751F" stroke-width="6" stroke-linecap="round"/>
<path d="M6 38H17" stroke="#FF751F" stroke-width="6" stroke-linecap="round"/>
<path d="M16.5488 13.3341L24.4616 20.9753" stroke="#FF751F" stroke-width="6" stroke-linecap="round"/>
<path d="M66.9127 14L59 21.6412" stroke="#FF751F" stroke-width="6" stroke-linecap="round"/>
</svg>
