<svg width="246" height="188" viewBox="0 0 246 188" fill="none" xmlns="http://www.w3.org/2000/svg">
<path d="M214.285 21.8299C187.728 0.256218 158.958 10.6878 147.893 18.6003C93.0545 44.4371 74.5038 34.9098 58.0686 36.8475C-20.8529 43.9527 -7.34675 104.023 28.29 138.58C63.9267 173.137 176.044 184.44 219.329 138.58C262.614 92.72 247.48 48.7971 214.285 21.8299Z" fill="#FF751F"/>
<path d="M70 2H120C161.421 2 195 35.5786 195 77V168H70V2Z" fill="white"/>
<path d="M196.151 50.0409L196.151 50.0418C196.166 50.1087 196.177 50.1522 196.185 50.1832C196.197 50.2316 196.201 50.2497 196.204 50.2797C196.209 50.3506 196.221 50.4102 196.231 50.4531C196.238 50.4794 196.245 50.5061 196.25 50.5244V162.031C196.25 166.002 192.977 169.25 188.938 169.25H76.0625C72.0233 169.25 68.75 166.002 68.75 162.031V7.96875C68.75 3.99777 72.0233 0.75 76.0625 0.75H151.307C151.311 0.75076 151.327 0.753513 151.361 0.762173C151.376 0.76581 151.391 0.769797 151.41 0.774938L151.413 0.775793C151.431 0.780447 151.452 0.786116 151.474 0.791691C151.52 0.803574 151.581 0.818103 151.649 0.829654L151.657 0.831015L151.665 0.832204L151.703 0.837852C151.805 0.85286 151.823 0.855629 151.852 0.864688L151.863 0.868147L151.875 0.871262C152.204 0.962874 152.501 1.13967 152.735 1.38224L152.741 1.38821L152.747 1.39405C152.78 1.42657 152.813 1.45343 152.844 1.47556L195.685 49.1111C195.709 49.1696 195.747 49.245 195.808 49.3227C195.974 49.5352 196.091 49.7804 196.151 50.0409ZM154.558 9.14065L153.25 7.68674V9.64219V43.8281C153.25 44.8933 153.696 46.0333 154.279 46.8971C154.574 47.335 154.925 47.7338 155.311 48.0308C155.688 48.3205 156.162 48.5625 156.688 48.5625H188.33H190.013L188.888 47.311L154.558 9.14065ZM149.375 5.3125V4.5625H148.625H76.0625C75.1536 4.5625 74.2802 4.91927 73.6349 5.55708C72.9893 6.19518 72.625 7.06251 72.625 7.96875V162.031C72.625 163.941 74.1516 165.438 76.0625 165.438H188.938C189.846 165.438 190.72 165.081 191.365 164.443C192.011 163.805 192.375 162.937 192.375 162.031V53.125V52.375H191.625H156.688C154.705 52.375 152.886 51.2825 151.536 49.6161C150.184 47.9482 149.375 45.7873 149.375 43.8281V5.3125Z" fill="white" stroke="#27313F" stroke-width="1.5"/>
<path d="M167.438 73.625H97.563C97.0463 73.625 96.5526 73.4221 96.1899 73.0636C95.8275 72.7054 95.6255 72.2215 95.6255 71.7188C95.6255 71.216 95.8275 70.7321 96.1899 70.3739C96.5526 70.0154 97.0463 69.8125 97.563 69.8125H167.438C167.955 69.8125 168.448 70.0154 168.811 70.3739C169.174 70.7321 169.375 71.216 169.375 71.7188C169.375 72.2215 169.174 72.7054 168.811 73.0636C168.448 73.4221 167.955 73.625 167.438 73.625ZM167.438 94.875H97.563C97.0463 94.875 96.5526 94.6721 96.1899 94.3136C95.8275 93.9554 95.6255 93.4715 95.6255 92.9688C95.6255 92.466 95.8275 91.9821 96.1899 91.6239C96.5526 91.2654 97.0463 91.0625 97.563 91.0625H167.438C167.955 91.0625 168.448 91.2654 168.811 91.6239C169.174 91.9821 169.375 92.466 169.375 92.9688C169.375 93.4715 169.174 93.9554 168.811 94.3136C168.448 94.6721 167.955 94.875 167.438 94.875ZM129.813 52.375H97.563C97.0463 52.375 96.5526 52.1721 96.1899 51.8136C95.8275 51.4554 95.6255 50.9715 95.6255 50.4688C95.6255 49.966 95.8275 49.4821 96.1899 49.1239C96.5526 48.7654 97.0463 48.5625 97.563 48.5625H129.813C130.33 48.5625 130.823 48.7654 131.186 49.1239C131.549 49.4821 131.75 49.966 131.75 50.4688C131.75 50.9715 131.549 51.4554 131.186 51.8136C130.823 52.1721 130.33 52.375 129.813 52.375ZM167.438 116.125H97.563C97.0463 116.125 96.5526 115.922 96.1899 115.564C95.8275 115.205 95.6255 114.721 95.6255 114.219C95.6255 113.716 95.8275 113.232 96.1899 112.874C96.5526 112.515 97.0463 112.312 97.563 112.312H167.438C167.955 112.312 168.448 112.515 168.811 112.874C169.174 113.232 169.375 113.716 169.375 114.219C169.375 114.721 169.174 115.205 168.811 115.564C168.448 115.922 167.955 116.125 167.438 116.125ZM167.438 137.375H97.563C97.0463 137.375 96.5526 137.172 96.1899 136.814C95.8275 136.455 95.6255 135.971 95.6255 135.469C95.6255 134.966 95.8275 134.482 96.1899 134.124C96.5526 133.765 97.0463 133.562 97.563 133.562H167.438C167.955 133.562 168.448 133.765 168.811 134.124C169.174 134.482 169.375 134.966 169.375 135.469C169.375 135.971 169.174 136.455 168.811 136.814C168.448 137.172 167.955 137.375 167.438 137.375Z" fill="white" stroke="#27313F" stroke-width="1.5"/>
<circle cx="167.5" cy="134.5" r="25.5" fill="white"/>
<path d="M186.214 152.427L186.675 153.225L186.699 153.267L186.719 153.301C186.731 153.322 186.738 153.335 186.745 153.345C186.748 153.35 186.75 153.353 186.751 153.355L192.256 158.726L192.686 159.145L192.371 159.656C191.874 160.461 191.671 161.402 191.79 162.33C191.909 163.258 192.345 164.123 193.032 164.785L193.035 164.788L214.778 186.001C215.602 186.805 216.7 187.25 217.875 187.25C219.05 187.25 220.148 186.805 220.975 185.998C221.801 185.192 222.25 184.13 222.25 183C222.25 181.87 221.801 180.808 220.975 180.002L199.232 158.789C197.864 157.455 195.603 157.232 193.916 158.162L193.429 158.431L193.031 158.042L187.513 152.659C187.511 152.658 187.508 152.655 187.502 152.652C187.497 152.649 187.491 152.645 187.483 152.641C187.477 152.637 187.469 152.633 187.459 152.628L187.426 152.61L187.385 152.588L186.522 152.125L187.194 151.413C191.611 146.731 194.06 140.605 194.062 134.25L186.214 152.427ZM186.214 152.427L185.526 153.04M186.214 152.427L185.526 153.04M185.526 153.04C180.871 157.193 174.697 159.75 167.906 159.75C153.466 159.75 141.75 148.293 141.75 134.25C141.75 120.207 153.466 108.75 167.906 108.75M185.526 153.04L167.906 108.75M167.906 108.75C182.346 108.75 194.062 120.206 194.062 134.25L167.906 108.75ZM220.197 185.317L220.204 185.311L220.21 185.304C220.837 184.693 221.188 183.873 221.188 183C221.188 182.127 220.837 181.307 220.21 180.696L198.469 159.485C198.469 159.484 198.469 159.484 198.469 159.484C198.161 159.182 197.796 158.944 197.395 158.781C196.994 158.618 196.565 158.535 196.132 158.535C195.699 158.535 195.27 158.618 194.869 158.781C194.469 158.943 194.104 159.182 193.797 159.483C193.488 159.783 193.241 160.141 193.073 160.536C192.904 160.932 192.817 161.358 192.817 161.787C192.817 162.217 192.904 162.643 193.073 163.039C193.242 163.434 193.488 163.792 193.797 164.093C193.798 164.093 193.798 164.093 193.798 164.093L215.54 185.304L215.546 185.311L215.553 185.317C216.182 185.901 217.013 186.225 217.875 186.225C218.737 186.225 219.568 185.901 220.197 185.317ZM142.812 134.25C142.812 147.777 154.087 158.75 167.906 158.75C181.725 158.75 193 147.777 193 134.25C193 120.723 181.725 109.75 167.906 109.75C154.087 109.75 142.812 120.723 142.812 134.25Z" fill="white" stroke="#27313F" stroke-width="1.5"/>
<path d="M149.438 134.25C149.438 124.342 157.704 116.25 167.906 116.25C178.108 116.25 186.375 124.342 186.375 134.25C186.375 144.158 178.108 152.25 167.906 152.25C157.704 152.25 149.438 144.158 149.438 134.25ZM150.5 134.25C150.5 143.642 158.326 151.25 167.906 151.25C177.487 151.25 185.312 143.642 185.312 134.25C185.312 124.858 177.487 117.25 167.906 117.25C158.326 117.25 150.5 124.858 150.5 134.25Z" fill="white" stroke="#27313F" stroke-width="1.5"/>
<rect x="191.754" y="162.438" width="6.13197" height="35.6664" rx="3.06599" transform="rotate(-46 191.754 162.438)" fill="white"/>
<path d="M164.352 136.915L164.874 137.422L165.396 136.915L175.574 127.045L177.923 129.322L167.778 139.161L164.896 141.955L161.992 139.139L159.077 136.312L161.404 134.056L164.352 136.915Z" fill="white" stroke="#27313F" stroke-width="1.5"/>
</svg>
