<svg width="30" height="24" viewBox="0 0 30 24" fill="none" xmlns="http://www.w3.org/2000/svg">
<path d="M27.4163 9.44121L26.7138 7.79473L25.4681 4.875C24.3988 2.36894 21.8481 0.75 18.9688 0.75H11.0312C8.1525 0.75 5.60125 2.36894 4.53188 4.875L3.28625 7.79473L2.58375 9.44121C1.07625 9.97852 0 11.3355 0 12.9375V15.75C0 16.6945 0.385 17.5471 1 18.2068V21.375C1 22.4104 1.89562 23.25 3 23.25H5C6.10437 23.25 7 22.4104 7 21.375V19.5H23V21.375C23 22.4104 23.8956 23.25 25 23.25H27C28.1044 23.25 29 22.4104 29 21.375V18.2068C29.615 17.5477 30 16.6951 30 15.75V12.9375C30 11.3355 28.9237 9.97852 27.4163 9.44121ZM8.24562 6.26777C8.70125 5.2002 9.80437 4.5 11.0312 4.5H18.9688C20.1956 4.5 21.2987 5.2002 21.7544 6.26777L23 9.1875H7L8.24562 6.26777ZM5 15.7383C3.8 15.7383 3 14.9906 3 13.8691C3 12.7477 3.8 12 5 12C6.2 12 8 13.6822 8 14.8037C8 15.9252 6.2 15.7383 5 15.7383ZM25 15.7383C23.8 15.7383 22 15.9252 22 14.8037C22 13.6822 23.8 12 25 12C26.2 12 27 12.7477 27 13.8691C27 14.9906 26.2 15.7383 25 15.7383Z" fill="white"/>
</svg>
