<svg width="30" height="30" viewBox="0 0 30 30" fill="none" xmlns="http://www.w3.org/2000/svg">
<mask id="mask0_793_128" style="mask-type:luminance" maskUnits="userSpaceOnUse" x="-2" y="-2" width="34" height="34">
<path d="M27.5 0H2.5C1.11929 0 0 1.11929 0 2.5V27.5C0 28.8807 1.11929 30 2.5 30H27.5C28.8807 30 30 28.8807 30 27.5V2.5C30 1.11929 28.8807 0 27.5 0Z" fill="white" stroke="white" stroke-width="4" stroke-linejoin="round"/>
<path d="M14.9997 8.3335V21.6668M8.33301 15.0002H21.6663" stroke="black" stroke-width="4" stroke-linecap="round" stroke-linejoin="round"/>
</mask>
<g mask="url(#mask0_793_128)">
<path d="M0 4C0 1.79086 1.79086 0 4 0H26C28.2091 0 30 1.79086 30 4V26C30 28.2091 28.2091 30 26 30H4C1.79086 30 0 28.2091 0 26V4Z" fill="white"/>
</g>
</svg>
