<svg width="171" height="109" viewBox="0 0 171 109" fill="none" xmlns="http://www.w3.org/2000/svg">
<path d="M148.969 29.9011C130.507 18.2968 110.506 23.9079 102.814 28.1639C64.6908 42.0613 51.7945 36.9366 40.3688 37.9789C-14.4968 41.8007 -5.10741 74.112 19.667 92.6998C44.4413 111.288 122.384 117.367 152.476 92.6998C182.567 68.0322 172.046 44.4065 148.969 29.9011Z" fill="#FF751F"/>
<path d="M32.8579 87.8015C32.8579 73.9944 44.0508 62.8015 57.8579 62.8015H111.464C125.272 62.8015 136.464 73.9944 136.464 87.8015V96.9504C136.464 99.7119 134.226 101.95 131.464 101.95H37.8579C35.0965 101.95 32.8579 99.7119 32.8579 96.9504V87.8015Z" fill="white"/>
<ellipse cx="84.6614" cy="27.7305" rx="25.9016" ry="25.2837" fill="white"/>
<path d="M84.2311 55.7481C68.7235 55.7481 56.1075 43.2434 56.1075 27.8725C56.1075 12.5017 68.7235 0 84.2311 0C99.7387 0 112.355 12.5047 112.355 27.8755C112.355 43.2464 99.7387 55.7481 84.2311 55.7481ZM84.2311 2.64725C70.1995 2.64725 58.7813 13.9648 58.7813 27.8725C58.7813 41.7803 70.1995 53.0978 84.2311 53.0978C98.2627 53.0978 109.681 41.7803 109.681 27.8725C109.681 13.9648 98.2627 2.64725 84.2311 2.64725ZM135.131 102.766H33.3315C32.977 102.766 32.6369 102.626 32.3862 102.378C32.1355 102.129 31.9946 101.792 31.9946 101.441V84.3312C33.2136 62.5985 52.9679 61.2884 53.1675 61.2764L115.213 61.2734C115.485 61.2854 135.246 62.5986 136.462 84.2562L136.465 101.441C136.465 101.615 136.431 101.787 136.365 101.948C136.298 102.109 136.2 102.255 136.076 102.379C135.952 102.502 135.805 102.599 135.642 102.666C135.48 102.732 135.306 102.766 135.131 102.766ZM34.6685 100.119H133.794V84.3312C132.711 65.0899 115.86 63.9596 115.143 63.9207L53.2431 63.9237C52.6019 63.9626 35.7513 65.1529 34.6685 84.4031V100.119Z" fill="#010003"/>
<path d="M141.645 43.9405V45.7757H127.075V59.5389H125.133V45.7757H110.563V43.9405H125.133V30.1772H127.075V43.9405H141.645Z" fill="#010003"/>
</svg>
