<svg width="146" height="136" viewBox="0 0 146 136" fill="none" xmlns="http://www.w3.org/2000/svg">
<path d="M127.19 34.3023C111.427 22.0234 94.3505 27.9606 87.7828 32.4641C55.2331 47.1695 44.2222 41.7469 34.467 42.8498C-12.3774 46.8938 -4.36071 81.0836 16.7917 100.752C37.9441 120.421 104.492 126.854 130.184 100.752C155.876 74.6503 146.893 49.651 127.19 34.3023Z" fill="#FF751F"/>
<rect x="51" y="8" width="49" height="55" fill="white"/>
<rect x="30" y="36" width="92" height="72" rx="5" fill="white"/>
<path d="M122.312 102.667V41.3333C122.312 39.9188 121.812 38.5623 120.921 37.5621C120.03 36.5619 118.822 36 117.562 36H34.4375C33.1777 36 31.9695 36.5619 31.0787 37.5621C30.1879 38.5623 29.6875 39.9188 29.6875 41.3333V102.667C29.6875 104.081 30.1879 105.438 31.0787 106.438C31.9695 107.438 33.1777 108 34.4375 108H117.562C118.822 108 120.03 107.438 120.921 106.438C121.812 105.438 122.312 104.081 122.312 102.667Z" stroke="#010003" stroke-linecap="round" stroke-linejoin="round"/>
<path d="M122.312 47.9492L76 71.9999L29.6875 47.9492" stroke="#010003" stroke-linecap="round" stroke-linejoin="round"/>
<path d="M66.9051 1V20.1511H51M66.9051 1H97.3514C98.0538 1 98.7275 1.336 99.2242 1.93409C99.721 2.53218 100 3.34336 100 4.18919V56.8108C100 57.6566 99.721 58.4678 99.2242 59.0659C98.7275 59.664 98.0538 60 97.3514 60H53.6486C52.9462 60 52.2725 59.664 51.7758 59.0659C51.2791 58.4678 51 57.6566 51 56.8108V20.1511M66.9051 1L51 20.1511M58.9459 29.8749H92.0541M73.5254 15.522H92.0541M58.9459 44.2263H78.8108M85.7238 44.2263H92.0541" stroke="#010003" stroke-linecap="round" stroke-linejoin="round"/>
</svg>
