<svg width="258" height="224" viewBox="0 0 258 224" fill="none" xmlns="http://www.w3.org/2000/svg">
<path d="M219.285 43.6429C192.728 22.0692 163.958 32.5008 152.893 40.4133C98.0545 66.2501 79.5038 56.7228 63.0686 58.6605C-15.8529 65.7657 -2.34675 125.836 33.29 160.393C68.9267 194.95 181.044 206.253 224.329 160.393C267.614 114.533 252.48 70.6101 219.285 43.6429Z" fill="#FF751F"/>
<path d="M50.2892 139.014L51.2465 110.774L66.4031 106.626L72.7848 95.937L70.0725 91.1507L62.7336 78.5468L83.6337 58.2848L99.2689 68.4956L110.756 64.0284L112.99 46H115.702H143.941L146.175 63.2306L159.736 68.4956L176.169 59.2421L194.676 79.9827L185.422 95.937L190.208 106.626L207.918 110.774V139.014L191.166 142.843L185.422 155.287L194.676 170.763L173.297 190.865L157.821 180.814L147.132 185.76L142.984 204.267H125.274L112.99 203.309L110.756 185.76L97.6735 180.016L86.0268 188.472L82.3574 190.865L71.1893 179.059L63.5313 168.529L72.7848 153.692L66.4031 142.843L50.2892 139.014Z" fill="white"/>
<path d="M50.2892 139.014L51.2465 110.774L66.4031 106.626L72.7848 95.937L70.0725 91.1507L62.7336 78.5468L83.6337 58.2848L99.2689 68.4956L110.756 64.0284L112.99 46H115.702H143.941L146.175 63.2306L159.736 68.4956L176.169 59.2421L194.676 79.9827L185.422 95.937L190.208 106.626L207.918 110.774V139.014L191.166 142.843L185.422 155.287L194.676 170.763L173.297 190.865L157.821 180.814L147.132 185.76L142.984 204.267H125.274L112.99 203.309L110.756 185.76L97.6735 180.016L86.0268 188.472L82.3574 190.865L71.1893 179.059L63.5313 168.529L72.7848 153.692L66.4031 142.843L50.2892 139.014Z" stroke="#27313F" stroke-width="1.91143"/>
<circle cx="129.103" cy="125.133" r="42.4384" fill="white"/>
<circle cx="129.103" cy="125.133" r="41.6739" fill="#F3F3F3" stroke="#27313F" stroke-width="1.52915"/>
<path d="M141.171 113.267C141.171 121.109 135.611 127.249 129.004 127.249C122.397 127.249 116.837 121.109 116.837 113.267C116.837 105.425 122.397 99.2857 129.004 99.2857C135.611 99.2857 141.171 105.425 141.171 113.267Z" fill="white" stroke="#27313F" stroke-width="1.91143"/>
<path d="M108.064 132.532C112.754 130.857 122.675 129.135 127.05 128.484H132.634C139.474 130.112 153.797 133.9 156.366 136.022C158.934 138.144 160.088 148.26 160.274 152.634C133.471 180.136 98.1523 160.452 98.1523 150.401C98.1523 140.35 102.201 134.626 108.064 132.532Z" fill="white" stroke="#27313F" stroke-width="1.91143" stroke-linecap="round"/>
<path d="M122.863 149.859L129.878 127.84L136.573 149.859L130.427 158.435L122.863 149.859Z" fill="#27313F"/>
<path d="M118.743 107.011C121.821 104.554 130.202 101.154 139.103 107.217" stroke="#27313F" stroke-width="1.91143" stroke-linecap="round"/>
<path d="M142.038 123.978L149.032 119.878L152.086 123.978L159.402 120.762" stroke="#27313F" stroke-width="1.91143"/>
<path d="M161.733 124.942L156.588 116.341L164.948 116.903L161.733 124.942Z" stroke="#27313F" stroke-width="1.91143"/>
<path fill-rule="evenodd" clip-rule="evenodd" d="M25.2499 89.7493L24.4483 84.2569L27.2333 82.9255L28.0935 80.6361L27.4019 79.8056L25.5428 77.6256L28.8751 72.9784L32.2544 74.406L34.3189 73.1411L34.1207 69.5779L40.104 68.4965L41.1378 71.7493L43.9433 72.2933L46.7967 69.9303L51.099 73.2931L49.8676 76.7005L51.1664 78.5997L54.7347 78.7828L55.7214 84.2418L52.6168 85.5673L51.9413 88.1736L54.2708 90.8419L50.8404 95.4749L47.4976 94.0726L45.604 95.4022L45.4488 99.1248L42.0254 99.7435L39.6171 99.9877L38.5722 96.6732L35.8425 96.02L33.8865 98.0615L33.2607 98.6524L30.6893 96.7603L28.841 94.9923L30.1114 91.8007L28.4987 89.9265L25.2499 89.7493ZM41.4835 92.5162C46.0144 91.6973 49.0235 87.3604 48.2046 82.8295C47.3857 78.2987 43.0488 75.2895 38.5179 76.1085C33.9871 76.9274 30.9779 81.2643 31.7969 85.7951C32.6158 90.326 36.9527 93.3351 41.4835 92.5162Z" fill="white" stroke="#27313F" stroke-width="1.91143"/>
<path fill-rule="evenodd" clip-rule="evenodd" d="M202.249 88.2201L201.447 82.7277L204.232 81.3963L205.092 79.1069L204.401 78.2764L202.542 76.0964L205.874 71.4492L209.253 72.8768L211.318 71.6119L211.119 68.0487L217.103 66.9673L218.137 70.2202L220.942 70.7641L223.795 68.4011L228.098 71.7639L226.866 75.1714L228.165 77.0705L231.733 77.2536L232.72 82.7126L229.615 84.0381L228.94 86.6444L231.27 89.3128L227.839 93.9458L224.496 92.5435L222.603 93.873L222.447 97.5956L219.024 98.2144L216.616 98.4585L215.571 95.144L212.841 94.4908L210.885 96.5324L210.259 97.1232L207.688 95.2311L205.84 93.4632L207.11 90.2716L205.497 88.3973L202.249 88.2201ZM218.482 90.987C223.013 90.1681 226.022 85.8312 225.203 81.3003C224.384 76.7695 220.047 73.7604 215.517 74.5793C210.986 75.3982 207.977 79.7351 208.796 84.2659C209.614 88.7968 213.951 91.8059 218.482 90.987Z" fill="white" stroke="#27313F" stroke-width="1.91143"/>
</svg>
