<svg width="146" height="91" viewBox="0 0 146 91" fill="none" xmlns="http://www.w3.org/2000/svg">
<path d="M127.19 7.30231C111.427 -4.97664 94.3505 0.960644 87.7828 5.46415C55.2331 20.1695 44.2222 14.7469 34.467 15.8498C-12.3774 19.8938 -4.36071 54.0836 16.7917 73.7522C37.9441 93.4207 104.492 99.854 130.184 73.7522C155.876 47.6503 146.893 22.651 127.19 7.30231Z" fill="#FF751F"/>
<rect x="27" y="6" width="104" height="70" rx="5" fill="white"/>
<path d="M126.84 6H31.16C30.0567 6 28.9986 6.43122 28.2184 7.1988C27.4383 7.96638 27 9.00744 27 10.093V71.907C27 72.9926 27.4383 74.0336 28.2184 74.8012C28.6047 75.1813 29.0633 75.4828 29.568 75.6884C30.0728 75.8941 30.6137 76 31.16 76H126.84C127.943 76 129.001 75.5688 129.782 74.8012C130.562 74.0336 131 72.9926 131 71.907V10.093C131 9.00744 130.562 7.96638 129.782 7.1988C129.001 6.43122 127.943 6 126.84 6Z" stroke="#010003" stroke-linecap="round" stroke-linejoin="round"/>
<path d="M37.6133 15.3404L68.8666 46.09C70.182 47.3879 71.7448 48.4176 73.4653 49.1202C75.1859 49.8227 77.0304 50.1844 78.8933 50.1844C80.7561 50.1844 82.6007 49.8227 84.3213 49.1202C86.0418 48.4176 87.6046 47.3879 88.9199 46.09L120.307 15.2092M119.693 66.7909L91.3466 43.9386M38.3599 66.7909L66.7066 43.9386" stroke="#010003" stroke-linecap="round" stroke-linejoin="round"/>
</svg>
