<svg width="258" height="224" viewBox="0 0 258 224" fill="none" xmlns="http://www.w3.org/2000/svg">
<path d="M219.285 48.0526C192.728 26.4789 163.958 36.9105 152.893 44.8231C98.0545 70.6598 79.5038 61.1325 63.0686 63.0703C-15.8529 70.1754 -2.34675 130.246 33.29 164.803C68.9267 199.359 181.044 210.663 224.329 164.803C267.614 118.942 252.48 75.0198 219.285 48.0526Z" fill="#FF751F"/>
<path d="M85.5666 57.4389L84.8819 57.7727L84.8322 58.5328C80.8436 119.579 110.962 142.616 127.109 146.522L127.468 146.608L127.82 146.495C144.36 141.167 155.969 126.14 163.104 109.214C170.248 92.2665 173.032 73.1342 171.72 59.1408L171.653 58.4308L171.021 58.1004C164.565 54.7254 146.921 48.1431 127.394 48.4918C107.922 48.8395 91.4534 54.5689 85.5666 57.4389Z" stroke="#27313F" stroke-width="2.62438"/>
<path d="M127.418 49.8038C108.155 50.1478 91.8744 55.8235 86.1416 58.6184C82.186 119.16 112.011 141.52 127.418 145.246C159.449 134.927 172.993 86.7819 170.413 59.2633C164.107 55.9668 146.68 49.4598 127.418 49.8038Z" fill="white"/>
<path d="M42.4695 55.3667C47.6237 54.446 57.3511 50.4397 57.9083 41.5878C57.8121 40.8363 57.7994 40.1234 57.8691 39.4711C57.9399 40.2055 57.9509 40.9108 57.9083 41.5878C58.5712 46.7645 63.1977 53.7689 72.1365 55.3667C67.2675 56.3577 57.5974 61.0159 57.8691 71.7196C57.6427 66.2686 54.2457 55.3667 42.4695 55.3667Z" fill="white"/>
<path d="M42.4695 55.3667C48.0179 54.3756 58.8656 49.8089 57.8691 39.4711C57.3189 44.6172 61.9002 53.537 72.1365 55.3667C67.2675 56.3577 57.5974 61.0159 57.8691 71.7196C57.6427 66.2686 54.2457 55.3667 42.4695 55.3667Z" stroke="#27313F" stroke-width="2.62438"/>
<path d="M186.935 68.3148C191.044 67.5906 198.797 64.439 199.241 57.4755C199.165 56.8843 199.155 56.3235 199.21 55.8104C199.267 56.3881 199.275 56.9429 199.241 57.4755C199.77 61.5478 203.458 67.0579 210.583 68.3148C206.702 69.0945 198.994 72.7589 199.21 81.1792C199.03 76.8911 196.322 68.3148 186.935 68.3148Z" fill="white"/>
<path d="M186.935 68.3148C191.358 67.5352 200.005 63.9428 199.21 55.8104C198.772 59.8586 202.423 66.8755 210.583 68.3148C206.702 69.0945 198.994 72.7589 199.21 81.1792C199.03 76.8911 196.322 68.3148 186.935 68.3148Z" stroke="#27313F" stroke-width="2.62438"/>
<path d="M110.833 94.9385L122.227 108.053L146.089 79.0293" stroke="#27313F" stroke-width="6.29852" stroke-linecap="round"/>
<path d="M102.981 154.528C94.844 146.552 77.4684 129.882 73.0614 127.007C69.6018 124.75 65.1473 126.663 62.2019 128.705L63.1583 124.826L57.6174 102.837L57.2494 96.4554L54.0008 90.8628C45.4398 86.0837 42.1749 94.0218 41.877 94.6329C41.579 95.244 42.6055 121.839 43.4523 130.496C44.2991 139.153 51.214 146.533 51.3705 146.988C51.4958 147.351 69.4367 164.797 78.3914 173.474L79.8523 182.733L107.487 179.416L107.773 177.589C108.114 176.217 108.733 173.292 108.482 172.564C108.232 171.837 108.653 169.32 108.894 168.152L108.683 162.225L107.433 158.892L102.981 154.528Z" fill="white"/>
<path d="M112.433 178.845L114.602 193.962L77.5427 198.231L75.3909 184.214L112.433 178.845Z" fill="white"/>
<path d="M112.253 178.387L114.374 193.817L76.4972 198.41L74.3876 184.104L112.253 178.387Z" stroke="#27313F" stroke-width="2.62438"/>
<path d="M80.2721 182.641L78.7805 173.947L53.8155 149.476C50.4168 146.701 43.5402 138.848 43.2232 129.636C42.827 118.123 38.664 95.1286 44.2422 91.1398C49.8204 87.151 56.3116 90.1762 57.8088 99.4316C59.0066 106.836 62.1645 121.924 63.07 128.189" stroke="#27313F" stroke-width="2.62438"/>
<path d="M107.481 178.716C107.753 177.871 110.138 163.52 107.568 159.332C104.998 155.144 75.2323 128.192 72.6903 126.813C70.1483 125.434 53.8629 126.159 62.7137 140.397C68.7658 146.33 81.0403 158.361 81.7211 159.029" stroke="#27313F" stroke-width="2.62438"/>
<path d="M154.399 153.123C162.881 145.516 180.98 129.633 185.51 126.957C189.066 124.856 193.432 126.965 196.284 129.135L195.5 125.218L202.012 103.497L202.663 97.1377L206.156 91.6948C214.921 87.3003 217.83 95.3756 218.101 95.9993C218.371 96.623 216.165 123.146 214.935 131.757C213.705 140.368 206.469 147.434 206.293 147.881C206.151 148.239 187.454 164.871 178.123 173.142L176.252 182.327L148.792 177.786L148.588 175.948C148.308 174.563 147.819 171.613 148.102 170.898C148.385 170.182 148.076 167.648 147.886 166.471L148.361 160.559L149.757 157.286L154.399 153.123Z" fill="white"/>
<path d="M143.877 176.997L141.038 192.003L177.872 197.912L180.644 184.004L143.877 176.997Z" fill="white"/>
<path d="M144.077 176.548L141.273 191.868L178.909 198.138L181.651 183.939L144.077 176.548Z" stroke="#27313F" stroke-width="2.62438"/>
<path d="M175.837 182.216L177.713 173.597L203.74 150.258C207.258 147.637 214.477 140.096 215.202 130.909C216.109 119.424 221.289 96.6371 215.893 92.4047C210.497 88.1722 203.878 90.9063 201.972 100.086C200.446 107.43 196.622 122.363 195.439 128.582" stroke="#27313F" stroke-width="2.62438"/>
<path d="M148.829 177.088C148.595 176.231 146.85 161.788 149.603 157.719C152.357 153.649 183.289 128.045 185.889 126.78C188.49 125.515 204.727 126.962 195.253 140.794C188.944 146.452 176.147 157.927 175.438 158.563" stroke="#27313F" stroke-width="2.62438"/>
</svg>
