<svg width="168" height="113" viewBox="0 0 168 113" fill="none" xmlns="http://www.w3.org/2000/svg">
<path d="M146.356 18.3023C128.217 6.02336 108.568 11.9606 101.01 16.4641C63.5559 31.1695 50.8858 25.7469 39.6606 26.8498C-14.2425 30.8938 -5.0178 65.0836 19.322 84.7522C43.6617 104.421 120.237 110.854 149.801 84.7522C179.364 58.6503 169.028 33.651 146.356 18.3023Z" fill="#FF751F"/>
<path d="M113.812 1C117.101 1 120.256 2.25299 122.581 4.48334C124.907 6.71368 126.214 9.73868 126.214 12.8929V94.8214C126.214 97.9756 124.907 101.001 122.581 103.231C120.256 105.461 117.101 106.714 113.812 106.714H83.1693C88.8745 101.019 92.3597 93.6137 93.0383 85.7436C93.717 77.8736 91.5476 70.0195 86.8953 63.5034C82.243 56.9873 75.3918 52.2069 67.4948 49.9667C59.5978 47.7265 51.1371 48.1634 43.5366 51.2037V12.8929C43.5366 9.73868 44.8433 6.71368 47.1692 4.48334C49.4951 2.25299 52.6497 1 55.9391 1H113.812ZM102.815 19.4841H66.9635C65.9636 19.4844 64.9977 19.832 64.2447 20.4628C63.4917 21.0935 63.0025 21.9645 62.8679 22.9146L62.8293 23.4484V31.3981C62.8293 33.4067 64.3893 35.0611 66.4067 35.3254L66.9635 35.3624H102.809C103.808 35.3624 104.773 35.0155 105.526 34.3858C106.279 33.7561 106.769 32.8864 106.905 31.9373L106.943 31.3981V23.4484C106.943 22.397 106.508 21.3887 105.733 20.6453C104.957 19.9018 103.911 19.4841 102.815 19.4841ZM131.732 69.7249H135.866C136.865 69.7249 137.83 70.0718 138.583 70.7015C139.336 71.3311 139.826 72.2009 139.961 73.15L140 73.6891V81.6071C140 82.5651 139.638 83.4907 138.982 84.2126C138.325 84.9346 137.418 85.4041 136.428 85.5344L135.866 85.5714H131.732V69.7249ZM131.732 48.582H135.866C136.865 48.582 137.83 48.929 138.583 49.5586C139.336 50.1883 139.826 51.0581 139.961 52.0071L140 52.5463V60.4643C140 61.4223 139.638 62.3478 138.982 63.0698C138.325 63.7917 137.418 64.2613 136.428 64.3916L135.866 64.4286H131.732V48.582ZM131.732 27.4391H135.866C136.865 27.4392 137.83 27.7861 138.583 28.4158C139.336 29.0454 139.826 29.9152 139.961 30.8643L140 31.4034V39.3214C140 40.2794 139.638 41.2049 138.982 41.9269C138.325 42.6489 137.418 43.1184 136.428 43.2487L135.866 43.2857H131.732V27.4391Z" fill="white" stroke="black" stroke-width="2"/>
<path d="M87.6341 82.9286C87.6341 79.1109 86.85 75.3306 85.3264 71.8034C83.8028 68.2763 81.5697 65.0715 78.7545 62.372C75.9393 59.6725 72.5972 57.5311 68.9189 56.0701C65.2407 54.6091 61.2984 53.8572 57.3171 53.8572C53.3358 53.8572 49.3935 54.6091 45.7152 56.0701C42.037 57.5311 38.6949 59.6725 35.8797 62.372C33.0645 65.0715 30.8313 68.2763 29.3077 71.8034C27.7842 75.3306 27 79.1109 27 82.9286C27 90.6388 30.1941 98.0333 35.8797 103.485C41.5652 108.937 49.2765 112 57.3171 112C65.3577 112 73.0689 108.937 78.7545 103.485C84.44 98.0333 87.6341 90.6388 87.6341 82.9286ZM60.0732 85.5715L60.0787 98.8016C60.0787 99.5025 59.7883 100.175 59.2714 100.67C58.7546 101.166 58.0535 101.444 57.3226 101.444C56.5916 101.444 55.8906 101.166 55.3737 100.67C54.8569 100.175 54.5665 99.5025 54.5665 98.8016V85.5715H40.7584C40.0275 85.5715 39.3265 85.293 38.8096 84.7974C38.2927 84.3018 38.0023 83.6295 38.0023 82.9286C38.0023 82.2277 38.2927 81.5555 38.8096 81.0598C39.3265 80.5642 40.0275 80.2857 40.7584 80.2857H54.561V67.0715C54.561 66.3705 54.8513 65.6983 55.3682 65.2027C55.8851 64.707 56.5861 64.4286 57.3171 64.4286C58.048 64.4286 58.7491 64.707 59.2659 65.2027C59.7828 65.6983 60.0732 66.3705 60.0732 67.0715V80.2857H73.8371C74.5681 80.2857 75.2691 80.5642 75.786 81.0598C76.3028 81.5555 76.5932 82.2277 76.5932 82.9286C76.5932 83.6295 76.3028 84.3018 75.786 84.7974C75.2691 85.293 74.5681 85.5715 73.8371 85.5715H60.0732Z" fill="white" stroke="black" stroke-width="2"/>
</svg>
