<svg width="246" height="161" viewBox="0 0 246 161" fill="none" xmlns="http://www.w3.org/2000/svg">
<path d="M214.285 13.6429C187.728 -7.93079 158.958 2.50081 147.893 10.4133C93.0545 36.2501 74.5038 26.7228 58.0686 28.6605C-20.8529 35.7657 -7.34675 95.836 28.29 130.393C63.9267 164.95 176.044 176.253 219.329 130.393C262.614 84.533 247.48 40.6101 214.285 13.6429Z" fill="#FF751F"/>
<path d="M195.2 145.53H195.95V144.78V15.22V14.47H195.2H61.6571H60.9071V15.22V144.78V145.53H61.6571H195.2ZM53.5143 1.75H203.343C206.553 1.75 209.107 4.25971 209.107 7.32V152.68C209.107 155.74 206.553 158.25 203.343 158.25H53.5143C50.3037 158.25 47.75 155.74 47.75 152.68V7.32C47.75 4.25971 50.3037 1.75 53.5143 1.75Z" fill="white" stroke="#27313F" stroke-width="1.5"/>
<path d="M183.102 51.4071H217.25V61.1928H183.102H182.352V61.9428V95.0499H172.219V61.9428V61.1928H171.469H137.321V51.4071H171.469H172.219V50.6571V17.5499H182.352V50.6571V51.4071H183.102Z" fill="white" stroke="#27313F" stroke-width="1.5"/>
<path d="M113.771 44.4099C118.979 44.4099 123.968 46.417 127.644 49.9828C131.319 53.5479 133.379 58.3783 133.379 63.4099C133.379 68.4416 131.319 73.2719 127.644 76.837C123.968 80.4028 118.979 82.4099 113.771 82.4099C108.564 82.4099 103.574 80.4028 99.899 76.837C96.2243 73.2719 94.1643 68.4416 94.1643 63.4099C94.1643 58.3783 96.2243 53.5479 99.899 49.9828C103.574 46.417 108.564 44.4099 113.771 44.4099ZM113.772 121.91C113.771 121.91 113.771 121.91 113.771 122.66C113.771 121.91 113.771 121.91 113.771 121.91H113.77L113.765 121.91L113.743 121.91L113.658 121.91L113.609 121.909C113.536 121.909 113.439 121.908 113.32 121.908C113.024 121.905 112.589 121.9 112.035 121.891C110.927 121.872 109.342 121.833 107.44 121.756C103.635 121.602 98.5668 121.295 93.5046 120.681C88.4312 120.066 83.4101 119.148 79.6752 117.789C77.8049 117.109 76.3084 116.336 75.2919 115.473C74.2841 114.617 73.8071 113.729 73.8071 112.785C73.8071 107.262 78.4783 101.286 85.9845 96.635C93.4402 92.0153 103.483 88.8474 113.771 88.8474C124.06 88.8474 134.103 92.0153 141.558 96.635C149.065 101.286 153.736 107.262 153.736 112.785C153.736 113.729 153.259 114.617 152.251 115.473C151.234 116.336 149.738 117.109 147.868 117.789C144.133 119.148 139.112 120.066 134.038 120.681C128.976 121.295 123.908 121.602 120.103 121.756C118.201 121.833 116.616 121.872 115.508 121.891C114.954 121.9 114.519 121.905 114.223 121.908C114.075 121.909 113.961 121.909 113.885 121.91L113.799 121.91L113.778 121.91L113.773 121.91H113.772Z" fill="white" stroke="#27313F" stroke-width="1.5"/>
</svg>
