<svg width="258" height="224" viewBox="0 0 258 224" fill="none" xmlns="http://www.w3.org/2000/svg">
<path d="M219.285 57.6429C192.728 36.0692 163.958 46.5008 152.893 54.4133C98.0545 80.2501 79.5038 70.7228 63.0686 72.6605C-15.8529 79.7657 -2.34675 139.836 33.29 174.393C68.9267 208.95 181.044 220.253 224.329 174.393C267.614 128.533 252.48 84.6101 219.285 57.6429Z" fill="#FF751F"/>
<g clip-path="url(#clip0_473_2517)">
<path d="M178.318 169.238C168.405 170.909 147.497 174.67 143.165 176.353C139.764 177.674 138.842 181.967 138.789 185.224L136.499 183.099L117.871 174.663L113.104 171.499L107.419 171.864C99.5811 175.566 103.594 181.236 103.879 181.783C104.164 182.33 123.771 195.89 130.417 199.928C137.064 203.966 147.243 202.428 147.741 202.428C149.481 202.428 167.961 198.685 178.798 196.792L186.638 201.365L198.492 179.329L197.329 178.468C196.52 177.48 194.894 176.931 194.243 176.723C193.592 176.515 192.286 174.852 191.572 174.046L187.074 171.048L183.742 168.324L178.318 169.238Z" fill="white"/>
<path d="M199.524 174.784L211.314 180.994L195.317 209.307L184.313 203.647L199.524 174.784Z" fill="white"/>
<path fill-rule="evenodd" clip-rule="evenodd" d="M195.302 211.452L182.394 204.716L198.693 173.338L212.443 180.685L195.302 211.452ZM194.513 208.819L209.746 181.477L199.524 176.015L185.049 203.88L194.513 208.819Z" fill="#27313F"/>
<path fill-rule="evenodd" clip-rule="evenodd" d="M186.141 198.517L185.271 200.284L178.651 197.025L148.917 202.036C146.959 202.546 143.68 202.999 140.034 202.76C136.361 202.521 132.238 201.574 128.712 199.199C126.658 197.815 123.974 196.225 121.072 194.509L120.969 194.448C118.108 192.756 115.052 190.949 112.25 189.128C109.42 187.29 106.806 185.41 104.892 183.59C103.934 182.679 103.125 181.758 102.55 180.838C101.978 179.921 101.602 178.945 101.61 177.946C101.634 174.639 103.183 172.003 105.87 170.776C108.516 169.569 112.035 169.829 115.854 171.755C118.557 173.118 122.649 175.032 126.763 176.957C127.073 177.102 127.382 177.247 127.692 177.391C132.093 179.451 136.41 181.479 138.88 182.777L137.964 184.521C135.544 183.25 131.277 181.244 126.857 179.175C126.545 179.029 126.231 178.883 125.918 178.736C121.816 176.817 117.698 174.891 114.968 173.514C111.482 171.757 108.615 171.69 106.69 172.569C104.807 173.428 103.6 175.294 103.58 177.962C103.576 178.456 103.765 179.063 104.222 179.795C104.677 180.524 105.36 181.317 106.25 182.163C108.029 183.856 110.522 185.657 113.323 187.477C116.09 189.275 119.116 191.064 121.988 192.763L122.074 192.813C124.96 194.52 127.7 196.142 129.813 197.565C132.956 199.683 136.704 200.569 140.161 200.795C143.618 201.02 146.707 200.581 148.458 200.12L148.501 200.108L178.95 194.977L186.141 198.517Z" fill="#27313F"/>
<path fill-rule="evenodd" clip-rule="evenodd" d="M146.909 191.142L146.791 191.133C143.03 190.863 140.509 189.886 138.989 188.373C137.433 186.825 137.08 184.873 137.318 183.042C137.553 181.236 138.366 179.481 139.243 178.123C139.685 177.439 140.157 176.835 140.606 176.357C141.035 175.901 141.508 175.489 141.96 175.273C142.181 175.168 142.519 175.057 142.891 174.946C143.285 174.829 143.785 174.693 144.373 174.542C145.55 174.239 147.104 173.868 148.91 173.456C152.523 172.633 157.166 171.642 161.871 170.695C166.574 169.749 171.346 168.845 175.214 168.199C177.147 167.876 178.862 167.616 180.234 167.447C181.572 167.282 182.672 167.191 183.321 167.241C184.644 167.344 186.177 168.086 187.639 169.001C189.139 169.938 190.708 171.15 192.136 172.353C193.567 173.56 194.875 174.774 195.855 175.726C196.345 176.202 196.755 176.615 197.06 176.931C197.34 177.223 197.582 177.484 197.687 177.628L196.097 178.791C196.099 178.793 196.098 178.792 196.094 178.787C196.082 178.774 196.049 178.734 195.982 178.66C195.898 178.569 195.784 178.447 195.64 178.297C195.353 177.999 194.958 177.601 194.482 177.138C193.528 176.211 192.255 175.03 190.866 173.859C189.474 172.686 187.984 171.54 186.595 170.671C185.17 169.78 183.984 169.269 183.169 169.205C182.749 169.173 181.842 169.234 180.476 169.402C179.144 169.566 177.46 169.822 175.54 170.142C171.701 170.784 166.953 171.682 162.261 172.627C157.569 173.571 152.942 174.558 149.349 175.377C147.551 175.787 146.017 176.153 144.866 176.45C144.289 176.598 143.815 176.727 143.454 176.835C143.071 176.948 142.873 177.021 142.809 177.051C142.692 177.107 142.422 177.303 142.043 177.707C141.684 178.089 141.284 178.597 140.898 179.193C140.12 180.397 139.458 181.874 139.272 183.298C139.09 184.697 139.37 185.973 140.378 186.977C141.411 188.004 143.351 188.894 146.815 189.16L169.608 185.318L169.936 187.261L146.909 191.142Z" fill="#27313F"/>
<path d="M96.569 53.3109C91.3405 52.858 91.7762 57.0222 92.6476 59.161L99.5566 77.6548H138.023C140.139 72.0563 144.633 60.2933 145.679 58.0287C146.725 55.7642 144.123 53.9399 142.691 53.3109C129.496 53.4996 101.797 53.7638 96.569 53.3109Z" fill="white"/>
<path d="M75.6635 142.306C67.8702 125.174 81.6583 99.9019 89.5264 89.4077L100.579 76.595H135.986L137.298 78.4254C153.221 85.5639 165.024 110.823 163.9 133.703C163 152.007 150.497 160.568 143.753 161.544L128.4 162.669C113.85 163.646 83.4567 159.438 75.6635 142.306Z" fill="white"/>
<path fill-rule="evenodd" clip-rule="evenodd" d="M142.583 55.0521C128.217 54.9887 98.8506 54.9012 95.1416 55.0518C93.5479 55.1165 92.9239 55.7161 92.6494 56.2437C92.3432 56.8322 92.3455 57.5767 92.4748 58.1168L100.799 76.6697H137.375C139.043 72.9221 142.331 65.3473 144.024 60.7642C144.857 58.5089 144.62 57.1387 144.193 56.3471C143.777 55.5765 143.092 55.185 142.583 55.0521ZM95.0616 53.0831C98.8387 52.9297 128.42 53.019 142.703 53.0823L142.804 53.0827L142.903 53.1036C143.887 53.3118 145.168 54.0051 145.927 55.4114C146.699 56.8423 146.838 58.8326 145.872 61.447C144.06 66.3511 140.475 74.5705 138.913 78.0575L138.653 78.6401H99.5234L90.6101 58.7741L90.5897 58.6982C90.3612 57.8476 90.2842 56.5206 90.9015 55.3342C91.5639 54.0611 92.9075 53.1706 95.0616 53.0831Z" fill="#27313F"/>
<path fill-rule="evenodd" clip-rule="evenodd" d="M136.988 77.4206C137.313 76.9839 137.93 76.8929 138.366 77.2174C143.392 80.9517 150.733 88.1504 156.535 97.6774C162.34 107.209 166.645 119.138 165.474 132.298C164.312 145.353 160.21 153.258 155.412 157.797C150.621 162.33 145.209 163.43 141.604 162.991C141.064 162.925 140.679 162.434 140.745 161.894C140.811 161.354 141.302 160.969 141.842 161.035C144.87 161.404 149.696 160.492 154.058 156.366C158.412 152.247 162.378 144.848 163.511 132.124C164.634 119.505 160.513 107.996 154.853 98.7023C149.19 89.4043 142.026 82.3911 137.191 78.799C136.755 78.4745 136.664 77.8574 136.988 77.4206Z" fill="#27313F"/>
<path d="M82.2609 66.996C76.5647 65.651 69.6974 69.2335 67.1366 71.5374L65.1242 73.9347L61.2451 75.16C58.7467 77.4639 55.932 82.6117 53.8334 83.2095C51.7348 83.8073 36.4555 83.8977 28.9604 83.6486L28.3983 101.956V130.724C48.2602 126.427 74.6804 139.13 74.6804 139.13C74.6804 139.13 71.495 122.131 87.422 96.3514C88.7304 94.2336 90.9197 93.6738 91.9191 91.1208C94.7297 89.6264 95.7041 87.721 100.351 88.3187C106.16 89.066 110.095 84.209 110.469 82.5278C110.769 81.1828 109.72 80.9711 109.158 81.0333L98.6646 74.3083C95.2919 72.6271 87.9572 68.341 82.2609 66.996Z" fill="white"/>
<path fill-rule="evenodd" clip-rule="evenodd" d="M90.7194 87.7452C91.1561 88.0696 91.247 88.6866 90.9224 89.1234C86.7737 94.7061 82.0549 101.995 78.569 109.802C75.0768 117.623 72.8626 125.875 73.6129 133.416C74.357 140.896 78.0211 147.755 86.4756 152.887C94.9844 158.053 108.391 161.494 128.627 161.914C129.171 161.925 129.603 162.376 129.591 162.92C129.58 163.463 129.13 163.895 128.586 163.884C108.192 163.461 94.3855 159.995 85.4523 154.572C76.4647 149.115 72.457 141.703 71.6521 133.612C70.8534 125.584 73.2129 116.965 76.7697 109C80.3327 101.02 85.138 93.6046 89.3409 87.9488C89.6655 87.512 90.2827 87.4209 90.7194 87.7452Z" fill="#27313F"/>
<path fill-rule="evenodd" clip-rule="evenodd" d="M67.3366 72.0243L53.9382 84.2061L53.6058 84.2344C52.7239 84.3094 48.2981 84.3228 43.2212 84.3126C38.5277 84.3032 33.1998 84.2729 29.3834 84.2453V129.075C32.5484 128.813 36.81 128.683 41.0462 128.775C45.7701 128.877 50.5536 129.259 53.7659 130.079C56.4279 130.758 60.3857 132.408 64.1477 134.056C65.3247 134.572 66.4833 135.088 67.585 135.578C70.0543 136.678 72.2381 137.65 73.7049 138.209L73.0032 140.051C71.4837 139.471 69.2144 138.461 66.7125 137.347C65.6238 136.862 64.491 136.358 63.3569 135.861C59.5634 134.199 55.7564 132.62 53.2787 131.988C50.296 131.227 45.701 130.847 41.0034 130.745C36.3236 130.643 31.6326 130.818 28.4974 131.135L27.4131 131.245V82.2601L28.4058 82.2676C32.2478 82.2969 38.1139 82.332 43.2251 82.3423C47.8765 82.3516 51.8285 82.3395 53.118 82.2888L66.0111 70.5664L67.3366 72.0243Z" fill="#27313F"/>
<path fill-rule="evenodd" clip-rule="evenodd" d="M82.3319 67.7662C74.6408 66.0311 68.8535 69.9469 66.7352 72.2025L65.2989 70.8536C67.7288 68.2662 74.1861 63.9087 82.7655 65.8441C87.9985 67.0246 95.343 70.4839 101.212 73.915C104.155 75.6356 106.772 77.375 108.601 78.8537C109.51 79.5884 110.263 80.2898 110.764 80.9174C111.013 81.2292 111.234 81.5652 111.368 81.9127C111.501 82.2552 111.592 82.7279 111.388 83.2069C110.84 84.4952 109.353 87.6098 105.348 88.893C101.533 90.1154 95.711 89.5856 86.7248 84.801C84.6515 91.5841 77.1627 103.186 60.6638 104.077L60.5576 102.109C76.9818 101.222 83.7875 89.0323 85.1374 83.1192L85.4293 81.8404L86.5761 82.4772C96.0096 87.7152 101.545 88.0425 104.747 87.0166C107.784 86.0435 108.993 83.7653 109.512 82.5809C109.47 82.4901 109.383 82.3461 109.224 82.1466C108.855 81.6838 108.229 81.0872 107.362 80.386C105.639 78.9931 103.115 77.31 100.218 75.616C94.4049 72.2178 87.2681 68.8797 82.3319 67.7662ZM109.541 82.6563C109.541 82.6562 109.541 82.6548 109.54 82.6521C109.541 82.655 109.542 82.6563 109.541 82.6563Z" fill="#27313F"/>
<path d="M123.679 129.624C121.114 129.645 120.383 129.526 118.439 128.259C117.132 127.408 115.38 127.773 114.524 129.075C113.669 130.376 114.035 132.122 115.343 132.974C117.441 134.341 119.002 134.916 120.87 135.136V136.313C120.87 137.869 122.136 139.13 123.698 139.13C125.26 139.13 126.526 137.869 126.526 136.313V134.844C129.956 133.845 132.602 131.097 133.335 127.492C134.24 123.041 131.953 118.812 127.644 116.966C126.505 116.478 125.534 116.127 124.676 115.817C122.907 115.178 122.017 114.835 121.134 114.032C120.592 113.539 120.374 112.642 120.579 111.747C120.686 111.28 121.076 110.149 122.389 109.755C125.14 108.93 126.891 110.311 127.101 110.488C128.261 111.516 130.04 111.42 131.082 110.268C132.127 109.112 132.034 107.331 130.873 106.29C130.612 106.056 129.042 104.727 126.526 104.138V102.73C126.526 101.174 125.26 99.9131 123.698 99.9131C122.136 99.9131 120.87 101.174 120.87 102.73V104.33C120.832 104.34 120.796 104.349 120.758 104.36C117.873 105.226 115.744 107.52 115.063 110.497C114.405 113.378 115.269 116.326 117.318 118.19C119.07 119.784 120.856 120.429 122.747 121.113C123.57 121.41 124.421 121.717 125.408 122.14C128.176 123.325 127.931 125.68 127.791 126.373C127.489 127.863 126.23 129.607 123.679 129.624Z" fill="#27313F"/>
<path d="M73.708 50.627C73.708 57.749 67.9234 63.5226 60.7877 63.5226C53.652 63.5226 47.8673 57.749 47.8673 50.627C47.8673 43.5049 53.652 37.7313 60.7877 37.7313C67.9234 37.7313 73.708 43.5049 73.708 50.627Z" fill="white"/>
<path fill-rule="evenodd" clip-rule="evenodd" d="M60.7877 61.9463C67.0557 61.9463 72.1318 56.8756 72.1318 50.627C72.1318 44.3783 67.0557 39.3076 60.7877 39.3076C54.5197 39.3076 49.4436 44.3783 49.4436 50.627C49.4436 56.8756 54.5197 61.9463 60.7877 61.9463ZM60.7877 63.5226C67.9234 63.5226 73.708 57.749 73.708 50.627C73.708 43.5049 67.9234 37.7313 60.7877 37.7313C53.652 37.7313 47.8673 43.5049 47.8673 50.627C47.8673 57.749 53.652 63.5226 60.7877 63.5226Z" fill="#27313F"/>
<path d="M197.602 142.486C197.602 149.608 191.817 155.382 184.682 155.382C177.546 155.382 171.761 149.608 171.761 142.486C171.761 135.364 177.546 129.591 184.682 129.591C191.817 129.591 197.602 135.364 197.602 142.486Z" fill="white"/>
<path fill-rule="evenodd" clip-rule="evenodd" d="M184.682 153.806C190.95 153.806 196.026 148.735 196.026 142.486C196.026 136.238 190.95 131.167 184.682 131.167C178.414 131.167 173.337 136.238 173.337 142.486C173.337 148.735 178.414 153.806 184.682 153.806ZM184.682 155.382C191.817 155.382 197.602 149.608 197.602 142.486C197.602 135.364 191.817 129.591 184.682 129.591C177.546 129.591 171.761 135.364 171.761 142.486C171.761 149.608 177.546 155.382 184.682 155.382Z" fill="#27313F"/>
<path d="M60.7385 54.8083C59.6657 54.8167 59.3604 54.7692 58.5473 54.2672C58.0005 53.9297 57.2678 54.0743 56.91 54.5904C56.5523 55.1064 56.7056 55.7983 57.2524 56.1359C58.1298 56.6778 58.7827 56.9057 59.5636 56.9931V57.4598C59.5636 58.0766 60.093 58.5763 60.7464 58.5763C61.3997 58.5763 61.9291 58.0766 61.9291 57.4598V56.8774C63.3634 56.4815 64.47 55.3919 64.7766 53.9629C65.1549 52.1989 64.1985 50.5222 62.3964 49.7905C61.9203 49.5973 61.5141 49.4582 61.1556 49.3352C60.4157 49.0819 60.0435 48.946 59.6742 48.6274C59.4476 48.4321 59.3566 48.0767 59.442 47.722C59.4867 47.5365 59.65 47.0883 60.1992 46.9321C61.3493 46.605 62.0818 47.1526 62.1693 47.2228C62.6546 47.6301 63.3988 47.5923 63.8345 47.1354C64.2715 46.6772 64.2322 45.9713 63.7468 45.5586C63.6377 45.466 62.9812 44.9391 61.9291 44.7056V44.1474C61.9291 43.5306 61.3997 43.0309 60.7464 43.0309C60.093 43.0309 59.5636 43.5306 59.5636 44.1474V44.7816C59.548 44.7859 59.5327 44.7893 59.517 44.7938C58.3104 45.1369 57.4202 46.0462 57.1355 47.2263C56.8602 48.3682 57.2216 49.5368 58.0784 50.2758C58.8111 50.9077 59.5581 51.1635 60.3487 51.4343C60.6929 51.552 61.0487 51.6739 61.4616 51.8414C62.6192 52.3114 62.5167 53.2446 62.4579 53.5195C62.3316 54.11 61.8053 54.8016 60.7385 54.8083Z" fill="#27313F"/>
<path d="M184.632 146.668C183.56 146.676 183.254 146.629 182.441 146.127C181.894 145.789 181.162 145.934 180.804 146.45C180.446 146.966 180.6 147.658 181.146 147.995C182.024 148.537 182.677 148.765 183.458 148.852V149.319C183.458 149.936 183.987 150.436 184.64 150.436C185.294 150.436 185.823 149.936 185.823 149.319V148.737C187.257 148.341 188.364 147.251 188.671 145.822C189.049 144.058 188.092 142.382 186.29 141.65C185.814 141.457 185.408 141.318 185.05 141.195C184.31 140.941 183.937 140.805 183.568 140.487C183.341 140.291 183.25 139.936 183.336 139.581C183.381 139.396 183.544 138.948 184.093 138.791C185.243 138.464 185.976 139.012 186.063 139.082C186.548 139.49 187.293 139.452 187.728 138.995C188.165 138.537 188.126 137.831 187.641 137.418C187.532 137.325 186.875 136.798 185.823 136.565V136.007C185.823 135.39 185.294 134.89 184.64 134.89C183.987 134.89 183.458 135.39 183.458 136.007V136.641C183.442 136.645 183.427 136.649 183.411 136.653C182.204 136.996 181.314 137.906 181.029 139.086C180.754 140.228 181.116 141.396 181.972 142.135C182.705 142.767 183.452 143.023 184.243 143.294C184.587 143.411 184.943 143.533 185.355 143.701C186.513 144.171 186.411 145.104 186.352 145.379C186.226 145.969 185.699 146.661 184.632 146.668Z" fill="#27313F"/>
</g>
<defs>
<clipPath id="clip0_473_2517">
<rect width="193" height="198" fill="white" transform="translate(18 13)"/>
</clipPath>
</defs>
</svg>
