<svg width="246" height="185" viewBox="0 0 246 185" fill="none" xmlns="http://www.w3.org/2000/svg">
<path d="M214.285 13.8299C187.728 -7.74378 158.958 2.68782 147.893 10.6003C93.0545 36.4371 74.5038 26.9098 58.0686 28.8475C-20.8529 35.9527 -7.34675 96.023 28.29 130.58C63.9267 165.137 176.044 176.44 219.329 130.58C262.614 84.72 247.48 40.7971 214.285 13.8299Z" fill="#FF751F"/>
<path d="M170.82 1C176.118 1 181.199 3.06575 184.945 6.7428C188.691 10.4199 190.796 15.407 190.796 20.6071V155.679C190.796 160.879 188.691 165.866 184.945 169.543C181.199 173.22 176.118 175.286 170.82 175.286H121.467C130.656 165.897 136.269 153.687 137.362 140.712C138.455 127.737 134.961 114.789 127.468 104.046C119.975 93.3034 108.94 85.4222 96.2213 81.7289C83.5023 78.0357 69.8753 78.7559 57.6338 83.7683V20.6071C57.6338 15.407 59.7384 10.4199 63.4845 6.7428C67.2307 3.06575 72.3115 1 77.6094 1H170.82ZM153.108 31.4739H95.3655C93.7551 31.4742 92.1995 32.0474 90.9866 33.0873C89.7738 34.1271 88.986 35.5632 88.7691 37.1294L88.707 38.0096V51.1159C88.707 54.4273 91.2194 57.1549 94.4688 57.5906L95.3655 57.6516H153.099C154.708 57.6515 156.263 57.0795 157.476 56.0415C158.688 55.0034 159.477 53.5694 159.696 52.0047L159.758 51.1159V38.0096C159.758 36.2762 159.056 34.6138 157.808 33.3881C156.559 32.1624 154.874 31.4739 153.108 31.4739ZM199.683 114.303H206.341C207.95 114.303 209.505 114.875 210.717 115.913C211.93 116.951 212.719 118.385 212.937 119.95L213 120.839V133.893C213 135.472 212.417 136.998 211.359 138.188C210.302 139.379 208.841 140.153 207.247 140.368L206.341 140.429H199.683V114.303ZM199.683 79.446H206.341C207.95 79.4461 209.505 80.018 210.717 81.0561C211.93 82.0942 212.719 83.5282 212.937 85.0929L213 85.9817V99.0357C213 100.615 212.417 102.141 211.359 103.331C210.302 104.522 208.841 105.296 207.247 105.51L206.341 105.571H199.683V79.446ZM199.683 44.5889H206.341C207.95 44.5889 209.505 45.1609 210.717 46.199C211.93 47.2371 212.719 48.671 212.937 50.2357L213 51.1246V64.1786C213 65.7579 212.417 67.2838 211.359 68.4741C210.302 69.6644 208.841 70.4385 207.247 70.6533L206.341 70.7143H199.683V44.5889Z" fill="white" stroke="#27313F" stroke-width="1.5"/>
<path d="M128.659 136.072C128.659 129.777 127.396 123.545 124.942 117.73C122.488 111.915 118.891 106.631 114.357 102.181C109.823 97.7303 104.44 94.1999 98.5154 91.7913C92.5912 89.3826 86.2416 88.1429 79.8293 88.1429C73.4169 88.1429 67.0674 89.3826 61.1431 91.7913C55.2189 94.1999 49.836 97.7303 45.3018 102.181C40.7675 106.631 37.1708 111.915 34.7169 117.73C32.263 123.545 31 129.777 31 136.072C31 148.783 36.1445 160.974 45.3018 169.962C54.459 178.95 66.8789 184 79.8293 184C92.7796 184 105.2 178.95 114.357 169.962C123.514 160.974 128.659 148.783 128.659 136.072ZM84.2683 140.429L84.2772 162.241C84.2772 163.396 83.8095 164.504 82.977 165.321C82.1445 166.139 81.0154 166.598 79.8381 166.598C78.6608 166.598 77.5318 166.139 76.6993 165.321C75.8668 164.504 75.3991 163.396 75.3991 162.241V140.429H53.1596C51.9823 140.429 50.8532 139.97 50.0207 139.152C49.1883 138.335 48.7206 137.227 48.7206 136.072C48.7206 134.916 49.1883 133.808 50.0207 132.991C50.8532 132.173 51.9823 131.714 53.1596 131.714H75.3902V109.929C75.3902 108.773 75.8579 107.665 76.6904 106.848C77.5229 106.031 78.652 105.572 79.8293 105.572C81.0066 105.572 82.1356 106.031 82.9681 106.848C83.8006 107.665 84.2683 108.773 84.2683 109.929V131.714H106.437C107.614 131.714 108.743 132.173 109.576 132.991C110.408 133.808 110.876 134.916 110.876 136.072C110.876 137.227 110.408 138.335 109.576 139.152C108.743 139.97 107.614 140.429 106.437 140.429H84.2683Z" fill="white" stroke="#27313F" stroke-width="1.5"/>
</svg>
