<svg width="246" height="184" viewBox="0 0 246 184" fill="none" xmlns="http://www.w3.org/2000/svg">
<path d="M214.285 33.8299C187.728 12.2562 158.958 22.6878 147.893 30.6003C93.0545 56.4371 74.5038 46.9098 58.0686 48.8475C-20.8529 55.9527 -7.34675 116.023 28.29 150.58C63.9267 185.137 176.044 196.44 219.329 150.58C262.614 104.72 247.48 60.7971 214.285 33.8299Z" fill="#FF751F"/>
<rect x="55.9316" y="14.2941" width="121.476" height="147.706" rx="7" fill="white"/>
<path d="M170.703 12.7059H67.7636C64.7301 12.7059 61.8209 13.8414 59.6759 15.8625C57.5309 17.8837 56.3259 20.6249 56.3259 23.4832V45.0379H44.8882V55.8152H56.3259V82.7585H44.8882V93.5358H56.3259V120.479H44.8882V131.256H56.3259V152.811C56.3259 155.669 57.5309 158.411 59.6759 160.432C61.8209 162.453 64.7301 163.588 67.7636 163.588H170.703C173.737 163.588 176.646 162.453 178.791 160.432C180.936 158.411 182.141 155.669 182.141 152.811V23.4832C182.141 20.6249 180.936 17.8837 178.791 15.8625C176.646 13.8414 173.737 12.7059 170.703 12.7059ZM170.703 152.811H67.7636V131.256H79.2013V120.479H67.7636V93.5358H79.2013V82.7585H67.7636V55.8152H79.2013V45.0379H67.7636V23.4832H170.703V152.811Z" fill="white" stroke="#27313F" stroke-width="1.5"/>
<path d="M102.077 45.0378H147.828V55.8152H102.077V45.0378ZM102.077 82.7584H147.828V93.5357H102.077V82.7584ZM102.077 120.479H147.828V131.256H102.077V120.479Z" fill="white" stroke="#27313F" stroke-width="1.5"/>
<rect x="156.899" y="103.235" width="50.4837" height="76.2353" rx="5" fill="white"/>
<path d="M161.02 103.985H202.808C204.024 103.985 205.249 104.696 206.198 105.956C207.142 107.21 207.756 108.943 207.756 110.801V176.374C207.756 178.233 207.142 179.965 206.198 181.219C205.249 182.48 204.024 183.19 202.808 183.19H161.02C159.803 183.19 158.579 182.48 157.63 181.219C156.685 179.965 156.071 178.233 156.071 176.374V110.801C156.071 108.943 156.685 107.21 157.63 105.956C158.579 104.696 159.803 103.985 161.02 103.985ZM168.997 174.602C169.706 174.602 170.282 174.15 170.641 173.673C171.014 173.177 171.267 172.517 171.267 171.834V165.782C171.267 165.099 171.014 164.438 170.641 163.943C170.282 163.466 169.706 163.014 168.997 163.014H164.439C163.73 163.014 163.154 163.466 162.795 163.943C162.422 164.438 162.169 165.099 162.169 165.782V171.834C162.169 172.517 162.422 173.177 162.795 173.673C163.154 174.15 163.73 174.602 164.439 174.602H168.997ZM168.997 154.426C169.706 154.426 170.282 153.973 170.641 153.497C171.014 153.001 171.267 152.341 171.267 151.658V145.605C171.267 144.922 171.014 144.262 170.641 143.767C170.282 143.29 169.706 142.838 168.997 142.838H164.439C163.73 142.838 163.154 143.29 162.795 143.767C162.422 144.262 162.169 144.922 162.169 145.605V151.658C162.169 152.341 162.422 153.001 162.795 153.497C163.154 153.973 163.73 154.426 164.439 154.426H168.997ZM184.193 174.602C184.902 174.602 185.478 174.15 185.837 173.673C186.21 173.177 186.463 172.517 186.463 171.834V165.782C186.463 165.099 186.21 164.438 185.837 163.943C185.478 163.466 184.902 163.014 184.193 163.014H179.634C178.926 163.014 178.35 163.466 177.991 163.943C177.618 164.438 177.365 165.099 177.365 165.782V171.834C177.365 172.517 177.618 173.177 177.991 173.673C178.35 174.15 178.926 174.602 179.634 174.602H184.193ZM184.193 154.426C184.902 154.426 185.478 153.973 185.837 153.497C186.21 153.001 186.463 152.341 186.463 151.658V145.605C186.463 144.922 186.21 144.262 185.837 143.767C185.478 143.29 184.902 142.838 184.193 142.838H179.634C178.926 142.838 178.35 143.29 177.991 143.767C177.618 144.262 177.365 144.922 177.365 145.605V151.658C177.365 152.341 177.618 153.001 177.991 153.497C178.35 153.973 178.926 154.426 179.634 154.426H184.193ZM199.389 174.602C200.098 174.602 200.674 174.15 201.033 173.673C201.406 173.177 201.659 172.517 201.659 171.834V145.605C201.659 144.922 201.406 144.262 201.033 143.767C200.674 143.29 200.098 142.838 199.389 142.838H194.83C194.122 142.838 193.546 143.29 193.186 143.767C192.813 144.262 192.561 144.922 192.561 145.605V171.834C192.561 172.517 192.813 173.177 193.186 173.673C193.546 174.15 194.122 174.602 194.83 174.602H199.389ZM199.389 134.25C200.098 134.25 200.674 133.797 201.033 133.32C201.406 132.825 201.659 132.165 201.659 131.482V115.341C201.659 114.658 201.406 113.998 201.033 113.503C200.674 113.026 200.098 112.573 199.389 112.573H164.439C163.73 112.573 163.154 113.026 162.795 113.503C162.422 113.998 162.169 114.658 162.169 115.341V131.482C162.169 132.165 162.422 132.825 162.795 133.32C163.154 133.797 163.73 134.25 164.439 134.25H199.389Z" fill="white" stroke="#27313F" stroke-width="1.5"/>
<path d="M70.8424 6.0637L70.8455 6.06328C71.8953 5.92214 72.767 6.7199 72.767 7.70853V44.6691V44.9908L73 45.2125L98.513 69.4858C99.2856 70.2209 99.1922 71.3523 98.3691 71.9014L98.3638 71.905C92.0964 76.1642 84.4179 78.6618 76.1253 78.6618C54.9032 78.6618 37.75 62.3047 37.75 42.1875C37.75 23.7834 52.1252 8.50102 70.8424 6.0637ZM110.344 68.7292L110.339 68.7246L85.8276 45.4191H122.815C123.951 45.4191 124.705 46.2982 124.583 47.202C123.354 55.6849 119.062 63.2348 112.78 68.8159C112.108 69.4126 111.02 69.3837 110.344 68.7292ZM82.092 36.4743V2.57468C82.092 1.59224 82.8981 0.75 83.9504 0.75C103.738 0.75 119.717 16.0056 119.717 34.7426C119.717 35.6551 118.887 36.4743 117.761 36.4743H82.092Z" fill="white" stroke="#27313F" stroke-width="1.5"/>
</svg>
