<svg width="258" height="224" viewBox="0 0 258 224" fill="none" xmlns="http://www.w3.org/2000/svg">
<path d="M219.285 43.6429C192.728 22.0692 163.958 32.5008 152.893 40.4133C98.0545 66.2501 79.5038 56.7228 63.0686 58.6605C-15.8529 65.7657 -2.34675 125.836 33.29 160.393C68.9267 194.95 181.044 206.253 224.329 160.393C267.614 114.533 252.48 70.6101 219.285 43.6429Z" fill="#FF751F"/>
<rect x="39.8569" y="64.0429" width="63.5672" height="121.904" fill="white" stroke="#27313F" stroke-width="2.01162"/>
<path d="M31.0058 174.682H113.068V196.901H31.0058V174.682Z" fill="white" stroke="#27313F" stroke-width="2.01162"/>
<rect x="52.5982" y="74.4445" width="14.7912" height="14.7912" fill="white" stroke="#27313F" stroke-width="2.01162"/>
<rect x="78.7356" y="74.4445" width="14.7912" height="14.7912" fill="white" stroke="#27313F" stroke-width="2.01162"/>
<rect x="52.5982" y="98.8487" width="14.7912" height="14.7912" fill="white" stroke="#27313F" stroke-width="2.01162"/>
<rect x="78.7356" y="98.8487" width="14.7912" height="14.7912" fill="white" stroke="#27313F" stroke-width="2.01162"/>
<rect x="52.5982" y="123.253" width="14.7912" height="14.7912" fill="white" stroke="#27313F" stroke-width="2.01162"/>
<rect x="78.7356" y="123.253" width="14.7912" height="14.7912" fill="white" stroke="#27313F" stroke-width="2.01162"/>
<rect x="52.5982" y="147.657" width="14.7912" height="14.7912" fill="white" stroke="#27313F" stroke-width="2.01162"/>
<rect x="78.7356" y="147.657" width="14.7912" height="14.7912" fill="white" stroke="#27313F" stroke-width="2.01162"/>
<rect x="143.657" y="93.4125" width="73.2229" height="94.9484" fill="white" stroke="#27313F" stroke-width="2.01162"/>
<rect x="133.196" y="179.51" width="94.1185" height="17.4699" fill="white" stroke="#27313F" stroke-width="2.01162"/>
<rect x="153.19" y="101.759" width="11.4019" height="11.4019" fill="white" stroke="#27313F" stroke-width="2.01162"/>
<rect x="174.055" y="101.758" width="11.4019" height="11.4019" fill="white" stroke="#27313F" stroke-width="2.01162"/>
<rect x="194.921" y="101.758" width="11.4019" height="11.4019" fill="white" stroke="#27313F" stroke-width="2.01162"/>
<rect x="153.19" y="121.24" width="11.4019" height="11.4019" fill="white" stroke="#27313F" stroke-width="2.01162"/>
<rect x="174.055" y="121.24" width="11.4019" height="11.4019" fill="white" stroke="#27313F" stroke-width="2.01162"/>
<rect x="194.921" y="121.24" width="11.4019" height="11.4019" fill="white" stroke="#27313F" stroke-width="2.01162"/>
<rect x="153.19" y="140.722" width="11.4019" height="11.4019" fill="white" stroke="#27313F" stroke-width="2.01162"/>
<rect x="174.055" y="140.722" width="11.4019" height="11.4019" fill="white" stroke="#27313F" stroke-width="2.01162"/>
<rect x="194.921" y="140.722" width="11.4019" height="11.4019" fill="white" stroke="#27313F" stroke-width="2.01162"/>
<rect x="153.19" y="160.204" width="11.4019" height="11.4019" fill="white" stroke="#27313F" stroke-width="2.01162"/>
<rect x="174.055" y="160.204" width="11.4019" height="11.4019" fill="white" stroke="#27313F" stroke-width="2.01162"/>
<rect x="194.921" y="160.204" width="11.4019" height="11.4019" fill="white" stroke="#27313F" stroke-width="2.01162"/>
<path fill-rule="evenodd" clip-rule="evenodd" d="M71.4395 43.9266H70.4337V44.9324V55.9876C70.4337 56.5431 70.884 56.9934 71.4395 56.9934C71.995 56.9934 72.4453 56.5431 72.4453 55.9876V45.9383H186.705V76.716C186.705 77.2715 187.156 77.7218 187.711 77.7218C188.267 77.7218 188.717 77.2715 188.717 76.716V44.9324V43.9266H187.711H71.4395ZM194.354 77.9197C194.796 77.5839 194.883 76.953 194.547 76.5105C194.212 76.0679 193.581 75.9813 193.138 76.317L187.44 80.6394L182.756 76.3746C182.345 76.0006 181.709 76.0305 181.335 76.4413C180.961 76.852 180.991 77.4882 181.401 77.8621L186.705 82.69L187.323 83.2531L187.99 82.7476L194.354 77.9197Z" fill="#27313F"/>
<circle cx="128.771" cy="45.5359" r="22.7313" fill="white" stroke="#27313F" stroke-width="1.6093"/>
<path d="M128.681 53.1675C126.727 53.1827 126.171 53.096 124.689 52.1799C123.694 51.5639 122.359 51.8278 121.707 52.7697C121.056 53.7114 121.335 54.9743 122.331 55.5905C123.929 56.5795 125.118 56.9955 126.541 57.155V58.0067C126.541 59.1324 127.505 60.0445 128.695 60.0445C129.886 60.0445 130.85 59.1324 130.85 58.0067V56.9438C133.463 56.2211 135.479 54.2326 136.037 51.6245C136.726 48.4049 134.984 45.3448 131.701 44.0094C130.834 43.6567 130.094 43.4029 129.441 43.1785C128.093 42.7161 127.415 42.468 126.742 41.8866C126.33 41.5301 126.164 40.8816 126.319 40.2341C126.401 39.8956 126.698 39.0775 127.699 38.7925C129.794 38.1956 131.128 39.1949 131.288 39.3231C132.171 40.0665 133.527 39.9975 134.321 39.1636C135.117 38.3273 135.045 37.0389 134.161 36.2858C133.962 36.1168 132.766 35.155 130.85 34.729V33.7101C130.85 32.5845 129.886 31.6724 128.695 31.6724C127.505 31.6724 126.541 32.5845 126.541 33.7101V34.8675C126.513 34.8754 126.485 34.8817 126.456 34.8898C124.258 35.5161 122.636 37.1756 122.118 39.3294C121.616 41.4136 122.275 43.5464 123.835 44.8951C125.17 46.0485 126.531 46.5152 127.971 47.0095C128.598 47.2244 129.246 47.4469 129.998 47.7526C132.107 48.6103 131.92 50.3136 131.813 50.8151C131.583 51.893 130.624 53.1553 128.681 53.1675Z" fill="#27313F"/>
</svg>
